<svg width="900" height="500" viewBox="0 0 900 500" fill="none" xmlns="http://www.w3.org/2000/svg">
  <rect width="900" height="500" fill="#FBF7F0"/>
  <g transform="translate(450 130)">
    <circle r="88" stroke="#111111" stroke-width="4" fill="none"/>
    <path d="M0 -96 A96 96 0 0 1 0 96" stroke="#C79B57" stroke-width="4" fill="none"/>
    <path d="M-86 0 C-48 -12 -25 -12 0 0 C25 12 48 12 86 0" stroke="#111111" stroke-width="5" fill="none" stroke-linecap="round"/>
    <path d="M0 -52 C22 -52 40 -34 40 -12 C40 12 22 26 16 46 C9 38 2 34 -10 30 C-26 24 -34 10 -34 -6 C-34 -28 -17 -52 0 -52Z" fill="#111111"/>
    <circle cx="98" cy="0" r="3" fill="#C79B57"/>
    <circle cx="108" cy="0" r="2.5" fill="#C79B57"/>
    <circle cx="118" cy="0" r="2" fill="#C79B57"/>
  </g>
  <text x="450" y="300" text-anchor="middle" font-size="78" letter-spacing="20" font-family="Inter, Arial, sans-serif" fill="#141414">MATEBA</text>
  <line x1="250" y1="348" x2="340" y2="348" stroke="#C79B57" stroke-width="2"/>
  <line x1="560" y1="348" x2="650" y2="348" stroke="#C79B57" stroke-width="2"/>
  <text x="450" y="356" text-anchor="middle" font-size="34" letter-spacing="10" font-family="Inter, Arial, sans-serif" fill="#C79B57">LIFE, IN MUSIC</text>
  <text x="450" y="426" text-anchor="middle" font-size="34" letter-spacing="12" font-family="Inter, Arial, sans-serif" fill="#141414">AUDIOGRAPHY</text>
</svg>
